# xmcd CD database file
#
# Track frame offsets:
#	150
#	18048
#	40288
#	54725
#	76450
#	94045
#	108868
#	125340
#	147858
#	173455
#
# Disc length: 2541 seconds
#
# Revision: 5
# Processed by: cddbd v1.5.2PL0 Copyright (c) Steve Scherf et al.
# Submitted via: CDex 1.70beta3
#
DISCID=7309eb0a
DTITLE=Tuck and Patti - Tears of Joy
DYEAR=1988
DGENRE=Jazz
TTITLE0=Tears of Joy
TTITLE1=Takes My Breath Away
TTITLE2=I've Got Just About Everything
TTITLE3=Time After Time
TTITLE4=Everything's Gonna Be All Right
TTITLE5=Better Than Anything
TTITLE6=My Romance
TTITLE7=Up And At It
TTITLE8=Mad Mad Me
TTITLE9=Love is the Key
EXTD=YEAR: 1988
EXTT0=
EXTT1=
EXTT2=
EXTT3=
EXTT4=
EXTT5=
EXTT6=
EXTT7=
EXTT8=
EXTT9=
PLAYORDER=
